<?xml version="1.0" standalone="no"?>
<!DOCTYPE svg PUBLIC "-//W3C//DTD SVG 20010904//EN"
 "http://www.w3.org/TR/2001/REC-SVG-20010904/DTD/svg10.dtd">
<svg version="1.0" xmlns="http://www.w3.org/2000/svg"
 width="4608.000000pt" height="2304.000000pt" viewBox="0 0 4608.000000 2304.000000"
 preserveAspectRatio="xMidYMid meet">

<g transform="translate(0.000000,2304.000000) scale(0.100000,-0.100000)"
fill="#000000" stroke="none">
<path d="M11260 20159 c-376 -30 -951 -266 -1524 -626 -635 -399 -1149 -890
-1350 -1290 -177 -354 -126 -658 144 -862 100 -75 183 -114 573 -271 881 -353
1264 -545 1471 -740 74 -69 159 -177 151 -190 -3 -4 -67 -56 -142 -116 -460
-359 -1049 -876 -1323 -1160 -420 -435 -630 -754 -630 -959 0 -56 46 -144 89
-173 79 -52 184 -64 317 -36 281 58 637 254 964 530 119 100 352 341 439 454
228 293 390 612 471 924 51 199 57 317 24 468 -6 25 12 40 327 276 546 407
673 497 665 470 -57 -190 -69 -257 -70 -373 -1 -103 2 -125 19 -154 59 -100
158 -101 267 -3 53 47 231 258 328 386 l74 100 18 -130 c45 -328 135 -526 269
-595 65 -33 154 -29 233 10 85 42 179 123 261 224 38 47 70 85 71 84 1 -1 -9
-51 -22 -112 -30 -140 -41 -283 -25 -323 13 -32 47 -52 87 -52 45 0 90 59 192
250 125 233 249 445 368 628 51 78 95 142 96 142 2 0 4 -80 4 -177 2 -250 35
-387 110 -453 44 -38 76 -46 126 -31 79 24 115 77 280 410 159 322 164 328
167 218 2 -66 31 -190 60 -253 70 -150 193 -215 344 -180 108 25 215 85 345
194 47 39 52 42 48 21 -22 -94 -26 -125 -26 -214 0 -131 19 -177 85 -206 90
-40 162 2 324 190 60 70 147 177 194 239 97 128 88 130 107 -28 27 -219 97
-419 179 -512 102 -116 254 -121 398 -14 58 43 166 151 215 215 l26 34 -23
-114 c-54 -267 -54 -309 2 -330 57 -21 98 8 127 93 30 86 183 428 250 561 128
251 250 417 308 417 44 0 81 -71 151 -288 59 -182 108 -281 174 -353 155 -166
342 -106 551 178 25 35 47 62 48 60 2 -1 -11 -65 -27 -142 -148 -687 -364
-1801 -433 -2230 -75 -467 -82 -591 -36 -640 33 -35 87 -34 122 3 35 36 88
149 88 188 0 32 -31 74 -55 74 -18 0 -20 -20 11 183 88 592 375 2034 644 3241
122 545 278 1208 288 1217 12 13 1655 32 2122 26 466 -7 611 -16 672 -41 67
-29 131 21 114 89 -14 55 -91 78 -330 97 -197 16 -1406 16 -2086 0 -250 -6
-455 -10 -456 -9 -4 3 115 485 172 700 49 185 53 211 42 235 -20 41 -59 56
-102 38 -43 -18 -38 -2 -177 -557 l-104 -417 -175 -6 c-96 -3 -411 -11 -700
-16 -694 -14 -665 -12 -695 -40 -27 -26 -33 -74 -12 -101 31 -40 35 -40 579
-25 288 9 623 18 744 21 l221 7 -73 -315 c-40 -173 -113 -492 -163 -710 l-89
-396 -68 -113 c-132 -221 -225 -351 -317 -446 -60 -63 -93 -82 -140 -82 -69 0
-120 86 -203 338 -61 183 -90 247 -142 311 -63 78 -162 102 -249 60 -58 -28
-166 -148 -235 -260 -80 -131 -79 -129 -72 -94 4 17 24 68 46 115 28 60 38 93
34 113 -4 17 13 91 44 199 28 94 50 179 50 189 0 10 -11 30 -23 45 -44 50
-116 29 -136 -40 -135 -473 -151 -518 -226 -651 -106 -188 -206 -328 -304
-426 -94 -95 -136 -121 -193 -123 -122 -3 -213 265 -246 728 -9 114 -10 121
-37 144 -22 18 -35 22 -59 18 -32 -7 -58 -34 -145 -156 -177 -247 -422 -537
-443 -524 -13 8 -3 102 23 214 57 248 170 479 291 597 123 119 202 123 322 14
65 -59 102 -66 141 -26 44 43 27 95 -52 165 -85 75 -135 95 -238 95 -74 0 -98
-4 -137 -23 -110 -54 -204 -153 -298 -312 -38 -66 -86 -126 -173 -216 -241
-251 -435 -357 -547 -299 -63 32 -110 203 -110 399 0 165 -30 226 -109 226
-50 0 -97 -39 -153 -125 -42 -64 -170 -315 -259 -505 -59 -128 -95 -190 -108
-190 -5 0 -17 33 -27 73 -15 61 -17 114 -16 340 2 163 -2 284 -8 307 -18 67
-83 91 -139 50 -54 -38 -357 -493 -496 -742 -27 -48 -50 -86 -53 -84 -6 7 82
326 143 514 31 96 87 252 126 347 38 96 69 182 69 193 0 35 -38 72 -74 72 -66
0 -81 -26 -197 -344 -146 -396 -446 -844 -623 -931 -86 -42 -133 -20 -188 90
-58 113 -104 352 -124 639 -6 86 -10 103 -30 123 -28 28 -63 29 -97 3 -14 -11
-60 -69 -103 -128 -176 -241 -423 -542 -447 -542 -17 0 -1 157 28 265 93 355
296 646 449 645 46 -1 105 -32 159 -84 54 -52 88 -59 131 -25 44 35 36 79 -24
143 -28 30 -79 69 -113 87 -57 31 -69 34 -152 34 -84 0 -94 -2 -155 -35 -77
-42 -163 -127 -232 -230 -33 -49 -62 -81 -84 -92 -67 -32 -800 -569 -1093
-800 l-73 -57 -42 57 c-24 31 -81 93 -127 137 -244 231 -576 402 -1489 769
-201 81 -405 167 -455 191 -313 152 -385 399 -215 735 156 310 544 703 1036
1052 550 390 1128 669 1568 758 155 31 329 27 401 -11 30 -15 62 -42 80 -68
28 -40 30 -49 34 -157 3 -108 4 -115 28 -134 34 -27 66 -25 100 4 28 24 28 25
28 143 0 112 -2 121 -31 183 -83 171 -246 241 -514 219z m-467 -4187 c12 -99
-37 -329 -107 -512 -223 -576 -750 -1142 -1341 -1440 -174 -88 -306 -132 -415
-138 -75 -4 -88 -2 -110 16 -90 73 73 365 412 738 212 234 555 561 898 855
225 193 639 529 651 529 3 0 9 -22 12 -48z"/>
<path d="M27211 20063 c-99 -50 -252 -311 -454 -773 -103 -237 -177 -423 -392
-995 -599 -1588 -943 -2604 -1104 -3265 -65 -263 -84 -379 -85 -515 -1 -92 2
-117 19 -150 41 -81 125 -106 213 -64 250 122 848 1024 1870 2825 140 245 225
366 235 334 3 -8 9 -26 13 -40 4 -14 10 -389 14 -835 6 -648 11 -838 24 -950
39 -341 106 -531 223 -636 91 -82 237 -92 375 -26 281 135 670 582 984 1127
437 762 816 1832 909 2569 13 96 16 179 13 295 -4 142 -8 169 -31 230 -69 184
-220 216 -404 87 -39 -28 -80 -62 -92 -77 -28 -36 -27 -85 2 -112 37 -35 68
-28 148 33 80 61 140 85 167 69 10 -6 26 -35 36 -65 27 -73 28 -323 2 -489
-144 -944 -674 -2239 -1204 -2945 -112 -150 -199 -249 -314 -361 -158 -154
-273 -231 -371 -248 -108 -20 -190 76 -237 278 -55 234 -62 346 -70 1216 -6
699 -9 804 -24 870 -31 133 -80 191 -164 192 -92 1 -188 -105 -337 -372 -600
-1076 -1192 -2040 -1528 -2489 -108 -144 -280 -331 -305 -331 -13 0 -14 14 -9
98 24 433 440 1732 1186 3707 190 502 253 662 354 898 101 238 250 542 319
649 l53 83 3 -130 c2 -116 5 -132 24 -152 30 -32 77 -30 109 3 23 25 24 31 24
177 0 142 -2 155 -25 201 -41 82 -105 112 -169 79z"/>
<path d="M36160 20069 c-155 -61 -399 -568 -565 -1173 -51 -188 -387 -1609
-411 -1740 -10 -57 -314 -504 -482 -711 -231 -283 -404 -422 -539 -433 -68 -6
-95 2 -136 38 -81 70 -119 245 -98 439 22 204 82 388 170 524 47 71 122 147
147 147 20 0 26 -67 13 -146 -9 -56 -9 -81 -1 -100 21 -46 91 -54 127 -14 27
30 49 182 36 253 -34 193 -210 223 -366 63 -27 -29 -88 -108 -134 -176 -152
-223 -306 -405 -469 -554 -194 -177 -354 -256 -404 -198 -63 71 -54 313 22
645 36 156 37 171 5 202 -66 67 -127 11 -246 -228 -274 -547 -550 -974 -783
-1215 -131 -135 -167 -150 -187 -79 -43 157 65 676 286 1381 36 115 65 224 65
243 0 26 -8 43 -34 69 -53 53 -96 45 -228 -44 -121 -82 -249 -151 -317 -172
-64 -20 -131 -26 -131 -12 0 4 21 43 46 87 25 44 79 146 120 226 192 381 223
572 103 635 -72 36 -178 -9 -292 -123 -101 -102 -156 -177 -217 -294 -70 -135
-94 -230 -88 -344 5 -90 20 -140 64 -207 l18 -27 -94 -123 c-284 -373 -578
-669 -758 -763 -82 -43 -184 -48 -245 -12 -49 29 -88 92 -107 176 -20 86 -7
312 24 441 41 165 39 160 149 261 221 203 356 364 426 509 31 65 36 85 36 148
0 72 -1 74 -37 108 -32 29 -45 34 -85 34 -68 -1 -125 -30 -205 -107 -290 -280
-539 -1039 -464 -1413 31 -151 89 -241 192 -300 109 -63 238 -59 381 11 138
69 426 330 625 570 91 109 261 328 276 356 6 10 17 9 56 -2 68 -21 138 -19
226 6 72 19 240 101 317 154 20 13 38 23 40 21 2 -2 -10 -46 -26 -97 -56 -176
-159 -544 -195 -699 -139 -602 -118 -876 68 -897 55 -7 99 8 173 56 185 120
461 486 742 986 41 72 75 131 76 133 1 1 2 -44 2 -100 0 -174 34 -276 111
-335 53 -40 99 -49 182 -35 135 23 306 138 513 345 l128 128 -7 -48 c-5 -26
-8 -104 -7 -173 2 -308 128 -501 336 -517 115 -10 232 32 365 128 132 97 364
357 535 599 34 49 63 87 65 86 1 -2 -38 -187 -88 -412 -111 -500 -200 -937
-200 -982 0 -66 91 -111 133 -64 8 9 64 166 124 347 61 182 141 408 179 504
l69 173 13 -48 c30 -115 89 -201 164 -240 48 -26 187 -31 268 -10 134 34 350
160 530 310 246 204 565 562 662 743 22 40 22 43 5 77 -18 38 -49 53 -90 42
-16 -3 -44 -36 -82 -93 -100 -151 -202 -272 -364 -434 -220 -219 -356 -325
-542 -423 -207 -108 -323 -108 -374 0 l-16 35 158 157 c174 172 218 235 268
386 32 96 37 214 12 263 -65 124 -203 108 -350 -40 -81 -82 -213 -279 -308
-459 -38 -73 -67 -122 -64 -108 16 80 152 683 265 1175 l130 570 91 168 c410
760 648 1352 649 1610 0 88 -19 133 -64 152 -40 17 -51 18 -86 4z m-30 -310
c-28 -110 -94 -296 -162 -458 -75 -182 -219 -493 -225 -487 -11 11 115 401
192 596 67 169 200 438 212 427 1 -2 -6 -37 -17 -78z m-4454 -1916 c-3 -10
-10 -37 -16 -60 -25 -96 -138 -341 -249 -538 l-50 -89 -16 37 c-19 46 -19 135
0 207 34 127 147 306 259 408 60 54 81 64 72 35z m-1181 -275 c-15 -29 -47
-80 -70 -113 -47 -65 -175 -211 -175 -198 0 18 85 163 138 237 53 73 120 141
130 131 3 -2 -8 -28 -23 -57z m5256 -724 c-14 -75 -65 -182 -124 -259 -45 -60
-94 -109 -241 -239 l-78 -70 71 141 c94 186 212 362 295 442 79 76 93 73 77
-15z"/>
<path d="M23313 18331 c-95 -24 -207 -132 -271 -262 -74 -152 -105 -308 -124
-641 l-12 -208 -231 -240 c-407 -425 -466 -496 -541 -646 -72 -144 -72 -242 2
-324 19 -21 58 -48 87 -61 47 -22 66 -24 192 -24 95 1 167 7 225 19 107 22
311 88 412 132 42 19 78 34 81 34 3 0 29 -44 57 -97 61 -114 149 -243 187
-273 34 -27 69 -25 98 5 37 36 32 73 -18 141 -80 111 -183 293 -170 304 4 4
49 33 98 65 168 108 288 219 376 348 108 157 89 283 -45 308 -49 9 -135 -12
-153 -37 -14 -19 -17 -62 -7 -89 9 -22 61 -47 84 -40 30 9 24 -7 -23 -71 -87
-118 -372 -354 -396 -328 -15 15 -58 163 -85 291 -33 155 -56 344 -56 455 l0
87 109 145 c222 295 333 513 362 711 20 132 -15 235 -93 275 -44 23 -102 32
-145 21z m78 -173 c16 -30 5 -128 -24 -213 -36 -106 -100 -226 -196 -370 -102
-154 -103 -152 -76 70 29 233 71 360 151 454 66 76 123 100 145 59z m-461
-1222 c0 -100 63 -412 115 -573 l32 -101 -76 -36 c-205 -93 -499 -164 -630
-152 -122 11 -152 52 -111 155 49 124 159 260 449 553 208 211 220 220 221
154z"/>
<path d="M33084 17621 c-75 -46 -109 -136 -61 -163 34 -18 117 -15 153 6 61
37 83 112 44 154 -27 28 -92 30 -136 3z"/>
<path d="M19649 17481 c-140 -55 -271 -205 -380 -437 -132 -280 -191 -595
-131 -710 57 -111 172 -104 293 18 68 70 228 261 308 370 36 48 66 86 67 85 2
-1 12 -66 24 -144 58 -397 182 -598 369 -595 32 0 78 9 102 18 187 73 414 354
634 788 l69 135 -17 35 c-32 68 -106 60 -146 -14 -13 -25 -62 -115 -109 -200
-267 -486 -504 -704 -609 -562 -84 114 -136 330 -162 675 -10 128 -16 148 -53
168 -47 25 -73 4 -195 -159 -213 -287 -409 -522 -435 -522 -18 0 -1 136 32
265 91 354 294 645 448 645 48 0 90 -21 155 -79 65 -57 103 -65 137 -31 33 33
35 66 8 108 -33 49 -124 119 -187 143 -65 24 -160 24 -222 0z"/>
<path d="M16833 12018 c-168 -19 -330 -170 -378 -353 -57 -222 46 -468 240
-572 274 -145 604 48 644 377 13 101 -3 192 -50 288 -92 188 -257 283 -456
260z m147 -94 c280 -78 362 -491 139 -699 -74 -69 -126 -90 -229 -90 -102 0
-155 21 -228 89 -94 88 -146 247 -124 376 22 124 92 236 179 287 91 53 168 64
263 37z"/>
<path d="M15390 11535 l0 -485 50 0 50 0 0 225 0 225 231 0 230 0 -3 38 -3 37
-227 3 -228 2 0 175 0 175 270 0 270 0 0 45 0 45 -320 0 -320 0 0 -485z"/>
<path d="M17830 11535 l0 -485 45 0 45 0 2 178 3 177 144 0 144 0 111 -175
112 -175 52 -3 c29 -2 52 0 52 3 0 3 -52 87 -115 186 -63 99 -115 182 -115
184 0 1 13 5 29 8 50 10 113 68 148 136 29 55 33 72 33 139 0 99 -35 178 -105
240 -73 64 -112 72 -367 72 l-218 0 0 -485z m495 369 c52 -35 71 -60 91 -118
42 -123 -36 -275 -148 -291 -24 -3 -110 -5 -193 -3 l-150 3 -3 218 -2 217 183
0 c181 0 185 0 222 -26z"/>
<path d="M19020 11535 l0 -485 325 0 325 0 0 40 0 40 -275 0 -275 0 0 185 0
185 235 0 235 0 0 40 0 40 -235 0 -235 0 0 175 0 175 270 0 270 0 0 45 0 45
-320 0 -320 0 0 -485z"/>
<path d="M20065 12001 c3 -10 93 -227 199 -482 l193 -464 44 0 43 0 198 474
c109 261 198 479 198 483 0 5 -21 8 -47 6 l-48 -3 -169 -417 c-94 -230 -172
-418 -175 -418 -4 0 -82 189 -176 420 l-170 420 -48 0 c-43 0 -48 -2 -42 -19z"/>
<path d="M21390 11535 l0 -485 325 0 325 0 0 40 0 40 -277 2 -278 3 -3 182 -2
183 237 2 238 3 3 37 3 38 -238 2 -238 3 -3 172 -2 173 272 2 273 3 3 43 3 42
-320 0 -321 0 0 -485z"/>
<path d="M22520 11535 l0 -485 50 0 50 0 0 180 0 181 142 -3 143 -3 113 -177
114 -178 54 0 53 0 -115 180 c-62 100 -114 184 -114 188 0 4 20 15 45 26 135
55 201 256 132 398 -15 31 -49 76 -76 101 -74 69 -112 77 -373 77 l-218 0 0
-485z m495 372 c23 -13 52 -42 70 -71 27 -44 30 -58 30 -126 0 -68 -3 -82 -30
-125 -20 -32 -45 -56 -74 -72 -41 -22 -55 -23 -218 -23 l-173 0 0 220 0 220
178 0 c165 0 180 -2 217 -23z"/>
<path d="M25890 11535 l0 -485 325 0 325 0 0 40 0 40 -277 2 -278 3 -3 182 -2
183 237 2 238 3 3 37 3 38 -238 2 -238 3 -3 173 -2 172 270 0 270 0 0 45 0 45
-315 0 -315 0 0 -485z"/>
<path d="M26923 12008 c8 -22 358 -860 379 -910 20 -46 22 -48 62 -48 l41 0
159 383 c88 210 179 428 203 485 l43 103 -51 -3 -51 -3 -169 -415 c-93 -228
-170 -419 -172 -424 -2 -5 -81 183 -176 417 l-174 427 -49 0 c-36 0 -49 -4
-45 -12z"/>
<path d="M28250 11535 l0 -485 325 0 325 0 0 40 0 40 -275 0 -275 0 0 185 0
185 235 0 235 0 0 40 0 40 -235 0 -235 0 0 175 0 175 270 0 270 0 0 45 0 45
-320 0 -320 0 0 -485z"/>
<path d="M29390 11536 l0 -486 45 0 45 0 0 180 0 180 144 0 143 0 114 -180
114 -180 53 0 c63 0 70 -21 -70 198 -116 181 -116 182 -91 182 31 0 106 53
136 97 107 155 58 368 -104 458 l-54 30 -237 3 -238 3 0 -485z m467 383 c61
-23 114 -96 128 -176 9 -54 -16 -140 -52 -184 -50 -59 -87 -69 -280 -69 l-173
0 0 220 0 220 174 0 c99 0 187 -5 203 -11z"/>
<path d="M24488 11668 l-3 -93 -82 -3 -83 -3 0 -34 0 -34 83 -3 82 -3 3 -92 3
-93 39 0 40 0 0 95 0 95 85 0 85 0 0 35 0 35 -85 0 -85 0 0 95 0 95 -40 0 -39
0 -3 -92z"/>
<path d="M20261 8124 c-63 -32 -105 -86 -120 -152 -43 -204 181 -351 353 -232
50 34 96 114 96 167 l0 33 -115 0 -115 0 0 -25 c0 -25 1 -25 91 -25 89 0 90 0
84 -22 -24 -77 -114 -135 -194 -124 -145 20 -208 185 -113 298 67 80 209 77
274 -5 13 -17 20 -19 40 -10 23 11 23 11 -24 56 -75 73 -165 87 -257 41z"/>
<path d="M20672 7971 c3 -164 5 -182 24 -208 33 -43 77 -65 137 -65 58 -1 99
16 137 57 25 26 25 30 28 211 3 178 3 184 -17 184 -18 0 -19 -8 -23 -169 -3
-162 -4 -171 -26 -194 -51 -54 -125 -59 -179 -12 l-28 23 -5 174 c-5 172 -5
173 -28 176 l-23 4 3 -181z"/>
<path d="M21199 8123 c-35 -91 -149 -409 -149 -415 0 -5 11 -8 24 -8 20 0 27
8 41 50 l17 51 101 -3 101 -3 17 -45 c13 -36 22 -46 43 -48 l26 -3 -35 98
c-20 54 -57 155 -82 226 -41 114 -48 127 -70 127 -16 0 -27 -8 -34 -27z m75
-151 c20 -57 36 -108 36 -113 0 -5 -36 -9 -80 -9 -44 0 -80 1 -80 3 0 1 16 47
35 102 20 55 38 106 41 114 7 20 8 16 48 -97z"/>
<path d="M21467 8143 c-4 -3 -7 -105 -7 -225 l0 -218 25 0 25 0 0 100 0 100
43 0 42 0 59 -96 c59 -96 71 -109 100 -102 12 2 1 25 -44 96 -64 99 -69 112
-44 112 9 0 29 14 45 31 24 26 29 40 29 80 0 61 -35 105 -95 119 -46 11 -169
13 -178 3z m186 -54 c24 -11 47 -47 47 -73 0 -7 -9 -25 -21 -40 -19 -24 -26
-26 -95 -26 l-74 0 0 75 0 75 60 0 c32 0 70 -5 83 -11z"/>
<path d="M21828 8144 c-5 -4 -8 -106 -8 -226 l0 -218 83 0 c90 0 161 25 204
71 54 59 71 172 38 243 -20 41 -84 102 -123 117 -35 13 -185 24 -194 13z m164
-54 c120 -34 166 -185 85 -277 -40 -46 -82 -63 -152 -63 l-55 0 0 175 0 175
43 0 c23 0 59 -5 79 -10z"/>
<path d="M22250 7925 l0 -225 120 0 120 0 0 25 c0 25 0 25 -95 25 l-95 0 0 75
0 75 86 0 c83 0 85 1 82 23 -3 20 -9 22 -85 25 l-83 3 0 74 0 75 95 0 c95 0
95 0 95 25 l0 25 -120 0 -120 0 0 -225z"/>
<path d="M22750 7925 l0 -225 120 0 120 0 0 25 c0 25 0 25 -95 25 l-95 0 0 75
0 75 86 0 c83 0 85 1 82 23 -3 20 -9 22 -85 25 l-83 3 0 74 0 75 95 0 c95 0
95 0 95 25 l0 25 -120 0 -120 0 0 -225z"/>
<path d="M23131 8137 c-58 -30 -81 -110 -47 -162 9 -14 53 -43 97 -65 50 -26
84 -49 91 -65 40 -88 -92 -140 -162 -65 -24 25 -30 27 -45 16 -42 -30 44 -98
124 -98 62 0 109 25 127 67 33 80 6 129 -100 179 -102 49 -130 92 -86 136 25
25 86 27 119 4 20 -15 24 -15 38 -1 19 19 12 30 -31 51 -40 19 -92 20 -125 3z"/>
<path d="M23433 8130 c-40 -24 -53 -48 -53 -100 0 -51 25 -78 111 -120 81 -39
99 -56 99 -95 0 -77 -104 -99 -167 -35 -24 25 -30 27 -46 15 -15 -11 -16 -17
-6 -32 53 -86 211 -87 255 -1 20 38 14 101 -13 130 -10 11 -53 38 -96 59 -91
46 -111 76 -79 118 23 32 82 40 118 16 19 -12 29 -13 45 -5 17 10 18 14 7 27
-35 43 -124 55 -175 23z"/>
<path d="M23814 8139 c-3 -6 -41 -107 -84 -225 l-77 -214 27 0 c23 0 28 6 41
48 l15 47 104 0 104 0 15 -47 c13 -42 18 -48 41 -48 l27 0 -78 215 c-42 118
-80 219 -84 225 -8 13 -42 13 -51 -1z m102 -271 c5 -16 -2 -18 -75 -18 -45 0
-81 1 -81 3 0 8 70 208 76 219 6 10 35 -65 80 -204z"/>
<path d="M24240 7926 l0 -226 73 0 c96 0 140 14 189 58 78 71 98 164 54 257
-43 91 -98 123 -232 132 l-84 6 0 -227z m214 143 c55 -37 79 -89 74 -159 -7
-104 -73 -160 -187 -160 l-61 0 0 176 0 177 70 -5 c51 -4 79 -12 104 -29z"/>
<path d="M24759 8123 c-35 -91 -149 -409 -149 -415 0 -5 11 -8 24 -8 20 0 27
8 41 50 l17 51 101 -3 101 -3 17 -45 c13 -36 22 -46 43 -48 l26 -3 -35 98
c-20 54 -57 155 -82 226 -41 114 -48 127 -70 127 -16 0 -27 -8 -34 -27z m75
-151 c20 -57 36 -108 36 -113 0 -5 -36 -9 -80 -9 -44 0 -80 1 -80 3 0 1 16 47
35 102 20 55 38 106 41 114 7 20 8 16 48 -97z"/>
<path d="M24977 8144 c-4 -4 -7 -16 -7 -26 0 -16 9 -18 65 -18 l65 0 0 -200
c0 -193 1 -200 20 -200 19 0 20 8 22 198 l3 197 63 3 c59 3 63 5 60 25 -3 21
-7 22 -144 25 -77 1 -143 -1 -147 -4z"/>
<path d="M25424 8139 c-3 -6 -41 -107 -84 -225 l-77 -214 27 0 c23 0 28 6 41
48 l15 47 104 0 104 0 15 -47 c13 -42 18 -48 41 -48 l27 0 -78 215 c-42 118
-80 219 -84 225 -8 13 -42 13 -51 -1z m102 -271 c5 -16 -2 -18 -75 -18 -45 0
-81 1 -81 3 0 8 70 208 76 219 6 10 35 -65 80 -204z"/>
<path d="M19104 6110 c-42 -21 -84 -80 -84 -119 0 -17 6 -21 29 -21 24 0 31 5
36 30 9 43 49 70 102 70 61 0 93 -32 93 -94 0 -53 -23 -87 -174 -251 -56 -60
-107 -118 -115 -127 -13 -17 -3 -18 178 -18 l191 0 0 30 0 29 -124 3 -125 3
95 105 c113 126 149 191 139 250 -18 106 -138 161 -241 110z"/>
<path d="M30257 6116 c-61 -22 -114 -65 -147 -116 -116 -181 16 -424 229 -424
169 0 292 132 279 298 -3 34 -13 77 -23 96 -24 49 -83 108 -130 132 -51 27
-156 34 -208 14z m178 -65 c49 -22 99 -77 115 -126 20 -61 9 -148 -26 -198
-34 -49 -119 -97 -172 -97 -145 0 -257 137 -222 271 35 135 181 207 305 150z"/>
<path d="M18730 6095 c0 -23 4 -25 45 -25 l45 0 0 -245 0 -245 30 0 30 0 0
270 0 270 -75 0 c-73 0 -75 -1 -75 -25z"/>
<path d="M19460 5850 l0 -270 25 0 25 0 0 120 0 120 150 0 150 0 0 -120 0
-120 30 0 30 0 0 270 0 270 -30 0 -30 0 0 -120 0 -120 -150 0 -150 0 0 120 0
120 -25 0 -25 0 0 -270z"/>
<path d="M25860 5851 l0 -271 95 0 c124 0 186 22 248 89 47 50 77 123 77 187
0 52 -38 139 -78 181 -62 64 -101 77 -229 81 l-113 4 0 -271z m181 209 c76
-15 126 -51 155 -113 29 -63 31 -127 5 -182 -38 -83 -111 -125 -216 -125 l-65
0 0 215 0 215 34 0 c18 0 57 -5 87 -10z"/>
<path d="M26380 5850 l0 -270 151 0 150 0 -3 28 -3 27 -117 3 -118 3 0 89 0
89 103 3 102 3 3 28 3 27 -105 0 -106 0 0 95 0 95 120 0 120 0 0 25 0 25 -150
0 -150 0 0 -270z"/>
<path d="M26990 5850 l0 -270 30 0 30 0 0 120 0 119 103 3 102 3 3 28 3 27
-105 0 -106 0 0 95 0 95 120 0 120 0 0 25 0 25 -150 0 -150 0 0 -270z"/>
<path d="M27360 5850 l0 -270 151 0 150 0 -3 28 -3 27 -117 3 -118 3 0 89 0
89 103 3 102 3 3 28 3 27 -105 0 -106 0 0 95 0 95 120 0 120 0 0 25 0 25 -150
0 -150 0 0 -270z"/>
<path d="M27704 6103 c4 -10 49 -132 99 -270 l91 -253 32 0 c26 0 34 5 42 28
5 15 49 134 96 265 47 131 86 241 86 243 0 2 -13 4 -29 4 -18 0 -31 -6 -36
-17 -4 -10 -38 -108 -77 -218 -38 -110 -73 -206 -77 -212 -4 -7 -43 89 -86
215 l-80 227 -34 3 c-29 3 -33 1 -27 -15z"/>
<path d="M28210 5850 l0 -270 151 0 150 0 -3 28 -3 27 -117 3 -118 3 0 89 0
89 103 3 102 3 3 28 3 27 -105 0 -106 0 0 95 0 95 120 0 120 0 0 25 0 25 -150
0 -150 0 0 -270z"/>
<path d="M28610 5850 l0 -270 30 0 29 0 3 123 3 122 49 0 50 0 73 -115 c40
-63 74 -119 75 -123 2 -5 18 -7 36 -5 l32 3 -76 119 c-43 66 -72 122 -66 124
32 10 79 52 94 82 34 67 13 143 -52 188 -30 20 -45 22 -156 22 l-124 0 0 -270z
m222 210 c69 -19 90 -93 44 -147 -23 -26 -30 -28 -115 -31 l-91 -4 0 89 c0 49
3 93 7 96 10 11 114 8 155 -3z"/>
<path d="M29060 5850 l0 -270 151 0 150 0 -3 28 -3 27 -117 3 -118 3 0 89 0
89 103 3 102 3 3 28 3 27 -105 0 -106 0 0 95 0 95 120 0 120 0 0 25 0 25 -150
0 -150 0 0 -270z"/>
<path d="M29470 5850 l0 -270 30 0 30 0 0 270 0 270 -30 0 -30 0 0 -270z"/>
<path d="M29650 5850 l0 -270 25 0 24 0 3 123 3 122 46 3 c54 3 49 8 139 -136
60 -96 70 -107 98 -110 18 -2 32 -1 32 3 0 3 -34 58 -76 122 -74 113 -79 132
-38 133 5 0 25 16 44 35 43 45 53 121 21 173 -38 60 -71 72 -203 72 l-118 0 0
-270z m225 206 c64 -27 77 -106 24 -150 -28 -23 -39 -26 -115 -26 l-84 0 0 88
c0 49 3 92 7 95 12 13 133 7 168 -7z"/>
<path d="M18170 5113 c-62 -22 -142 -105 -163 -167 -86 -252 195 -473 414
-324 100 68 147 190 115 300 -34 120 -132 198 -254 204 -45 3 -82 -2 -112 -13z
m218 -76 c79 -52 117 -155 92 -247 -16 -61 -89 -134 -150 -150 -134 -36 -265
54 -277 190 -7 70 9 120 50 167 47 54 99 74 178 71 52 -3 75 -9 107 -31z"/>
<path d="M25945 5116 c-37 -16 -70 -52 -84 -89 -18 -46 -14 -57 18 -57 25 0
31 6 41 35 15 44 44 65 93 65 51 0 76 -15 93 -56 30 -72 26 -77 -275 -406
l-25 -28 197 0 197 0 0 30 0 29 -129 3 -128 3 98 110 c141 156 160 203 119
293 -15 33 -29 47 -62 62 -50 23 -110 25 -153 6z"/>
<path d="M26405 5116 c-40 -18 -70 -51 -97 -111 -19 -42 -23 -67 -23 -155 0
-95 3 -110 28 -163 38 -76 89 -111 161 -111 128 0 207 127 193 311 -5 72 -33
151 -65 186 -46 51 -135 70 -197 43z m133 -62 c12 -8 32 -34 45 -57 19 -36 22
-57 22 -147 0 -92 -3 -110 -23 -146 -13 -22 -37 -48 -52 -57 -58 -35 -122 -12
-162 57 -20 36 -23 54 -23 146 0 90 3 111 22 147 29 54 58 73 108 73 22 0 51
-7 63 -16z"/>
<path d="M26865 5116 c-37 -16 -70 -52 -84 -89 -18 -46 -14 -57 18 -57 25 0
31 6 41 35 15 44 44 65 93 65 51 0 76 -15 93 -56 30 -72 26 -77 -275 -406
l-25 -28 197 0 197 0 0 30 0 29 -129 3 -128 3 98 110 c141 156 160 203 119
293 -15 33 -29 47 -62 62 -50 23 -110 25 -153 6z"/>
<path d="M17440 4850 l0 -270 30 0 30 0 2 222 3 222 165 -222 c144 -193 168
-221 193 -222 l27 0 0 270 0 270 -30 0 -30 0 -2 -215 -3 -215 -163 215 c-148
195 -166 215 -192 215 l-30 0 0 -270z"/>
<path d="M18850 4850 l0 -270 93 0 c113 0 170 17 230 70 147 129 111 363 -68
446 -42 20 -66 24 -152 24 l-103 0 0 -270z m181 210 c65 -12 109 -41 143 -93
50 -78 43 -179 -17 -252 -43 -53 -97 -75 -184 -75 l-73 0 0 208 c0 115 3 212
7 215 9 10 62 9 124 -3z"/>
<path d="M19370 4850 l0 -270 30 0 30 0 0 270 0 270 -30 0 -30 0 0 -270z"/>
<path d="M19669 5093 c-6 -16 -50 -137 -99 -270 l-87 -243 32 0 c30 0 33 3 54
65 l23 66 121 -3 121 -3 20 -62 c19 -60 21 -63 53 -63 l33 0 -34 93 c-18 50
-62 172 -97 270 l-64 177 -33 0 c-26 0 -35 -5 -43 -27z m141 -325 c0 -5 -45
-8 -100 -8 -55 0 -100 1 -100 3 0 3 83 242 96 277 5 12 103 -246 104 -272z"/>
<path d="M27236 5098 c-6 -27 -26 -196 -26 -219 0 -9 12 -21 26 -28 22 -10 30
-9 46 6 15 13 36 18 79 18 52 0 62 -3 90 -31 23 -23 32 -43 36 -75 13 -134
-160 -187 -269 -83 l-26 26 -7 -31 c-8 -40 5 -58 65 -84 56 -25 152 -27 196
-4 131 68 134 259 4 325 -51 26 -96 28 -146 7 l-35 -14 6 47 c3 26 9 59 11 74
l5 27 112 3 112 3 3 28 3 27 -140 0 c-138 0 -141 0 -145 -22z"/>
</g>
</svg>
